<svg width="18" height="19" viewBox="0 0 18 19" fill="none" xmlns="http://www.w3.org/2000/svg">
<g id="Group 11">
<path id="Vector" d="M15.8962 9.84562C16.2914 10.0776 16.7999 9.9452 17.0318 9.54987C17.2637 9.15453 17.1313 8.64612 16.7359 8.41421L15.8962 9.84562ZM2.42681 0.980932L1.99854 1.69178L2.00688 1.69667L2.42681 0.980932ZM0.841272 2.03759L0.0203975 2.15924C0.0285188 2.21401 0.0420946 2.26783 0.0609374 2.3199L0.841272 2.03759ZM2.62679 9.41222C2.7827 9.84319 3.25846 10.0661 3.68944 9.91024C4.12041 9.75434 4.34338 9.27857 4.18747 8.8476L2.62679 9.41222ZM16.7359 9.84562C17.1313 9.61371 17.2637 9.1053 17.0318 8.70996C16.7999 8.31474 16.2914 8.1823 15.8962 8.41421L16.7359 9.84562ZM2.42681 17.279L2.00685 16.5631L1.99857 16.5681L2.42681 17.279ZM0.841272 16.2223L0.0609374 15.9399C0.0420946 15.9921 0.0285188 16.0458 0.0203975 16.1006L0.841272 16.2223ZM4.18747 9.41222C4.34338 8.98126 4.12041 8.50549 3.68944 8.34959C3.25846 8.19369 2.7827 8.41664 2.62679 8.8476L4.18747 9.41222ZM16.316 9.95981C16.7743 9.95981 17.1459 9.58826 17.1459 9.12997C17.1459 8.67157 16.7743 8.30013 16.316 8.30013V9.95981ZM3.40713 8.30013C2.94882 8.30013 2.57729 8.67157 2.57729 9.12997C2.57729 9.58826 2.94882 9.95981 3.40713 9.95981V8.30013ZM16.7359 8.41421L2.84674 0.265193L2.00688 1.69667L15.8962 9.84562L16.7359 8.41421ZM2.85505 0.270128C2.23073 -0.106009 1.44541 -0.0880959 0.838893 0.316112L1.75928 1.69719C1.83127 1.64922 1.92444 1.64714 1.99854 1.69178L2.85505 0.270128ZM0.838893 0.316112C0.23236 0.72032 -0.0864522 1.43824 0.0203975 2.15924L1.66215 1.91594C1.64947 1.83036 1.6873 1.74517 1.75928 1.69719L0.838893 0.316112ZM0.0609374 2.3199L2.62679 9.41222L4.18747 8.8476L1.62162 1.75528L0.0609374 2.3199ZM15.8962 8.41421L2.00685 16.5631L2.84674 17.9946L16.7359 9.84562L15.8962 8.41421ZM1.99857 16.5681C1.92447 16.6128 1.83127 16.6107 1.75928 16.5626L0.838882 17.9437C1.44541 18.3479 2.23073 18.3658 2.85505 17.9897L1.99857 16.5681ZM1.75928 16.5626C1.6873 16.5147 1.64947 16.4294 1.66215 16.3439L0.0203975 16.1006C-0.0864522 16.8216 0.23236 17.5395 0.838882 17.9437L1.75928 16.5626ZM1.62162 16.5046L4.18747 9.41222L2.62679 8.8476L0.0609374 15.9399L1.62162 16.5046ZM16.316 8.30013H3.40713V9.95981H16.316V8.30013Z" fill="white"/>
</g>
</svg>
