<svg width="32" height="32" viewBox="0 0 32 32" fill="none" xmlns="http://www.w3.org/2000/svg">
<g id="browse-svgrepo-com 1">
<g id="Group 3">
<path id="Vector" d="M18.2927 27.3067C18.2927 28.7206 17.1509 29.8667 15.7425 29.8667C14.334 29.8667 13.1923 28.7206 13.1923 27.3067M18.2927 27.3067C18.2927 25.8928 17.1509 24.7467 15.7425 24.7467M18.2927 27.3067H27.2183M13.1923 27.3067C13.1923 25.8928 14.334 24.7467 15.7425 24.7467M13.1923 27.3067H4.2666M15.7425 24.7467V19.6267M15.7425 19.6267C22.118 19.6267 27.2183 17.9115 27.2183 15.7867V8.10667M15.7425 19.6267C9.36699 19.6267 4.2666 17.9115 4.2666 15.7867V8.10667M27.2183 8.10667C27.2183 10.2274 22.0805 11.9467 15.7425 11.9467C9.40453 11.9467 4.2666 10.2274 4.2666 8.10667M27.2183 8.10667C27.2183 5.9859 22.0805 4.26666 15.7425 4.26666C9.40453 4.26666 4.2666 5.9859 4.2666 8.10667" stroke="white" stroke-linecap="round" stroke-linejoin="round"/>
</g>
</g>
</svg>
