<svg width="32" height="32" viewBox="0 0 32 32" fill="none" xmlns="http://www.w3.org/2000/svg">
<g id="browse-svgrepo-com 1">
<g id="Group 28">
<path id="Vector" d="M21.3718 3.65192C20.6964 4.32729 20.6964 5.38856 21.3718 6.06393L25.9787 10.6709C27.9807 12.6728 28.0048 15.9531 26.027 17.9792C24.0009 19.9571 20.7447 19.9571 18.7187 17.9309L14.1117 13.324C13.4364 12.6486 12.3751 12.6486 11.6997 13.324C11.0244 13.9993 11.0244 15.0606 11.6997 15.736L16.3067 20.3429C19.6111 23.6473 24.9416 23.6956 28.3184 20.5119C28.3425 20.4878 28.3908 20.4636 28.4148 20.4395L28.4631 20.3912L28.5114 20.3429C28.5354 20.3189 28.5597 20.2946 28.5837 20.2465C31.7676 16.8698 31.7193 11.5392 28.4148 8.25889L23.8079 3.65196C23.1084 2.97661 22.023 2.97656 21.3718 3.65192ZM15.4141 9.77842L20.0211 14.3853C20.6964 15.0607 21.7577 15.0607 22.4331 14.3853C23.1084 13.71 23.1084 12.6487 22.4331 11.9733L17.8262 7.36641C14.5217 4.06198 9.19119 4.01372 5.81438 7.19746C5.79034 7.2215 5.74204 7.24577 5.718 7.2698L5.6697 7.3181L5.6214 7.36641C5.59736 7.39044 5.5731 7.41471 5.54906 7.46278C2.36522 10.8396 2.41346 16.1701 5.718 19.4745L10.3249 24.0815C11.0003 24.7568 12.0616 24.7568 12.7369 24.0815C13.4123 23.4061 13.4123 22.3448 12.7369 21.6695L8.13 17.0625C6.12804 15.0606 6.10391 11.7803 8.08169 9.75418C10.1319 7.75222 13.4122 7.77654 15.4141 9.77842Z" fill="white"/>
</g>
</g>
</svg>
