<svg width="30" height="30" viewBox="0 0 30 30" fill="none" xmlns="http://www.w3.org/2000/svg">
<g id="react-fill-svgrepo-com 1" clip-path="url(#clip0_1_7737)">
<g id="Clip path group">
<mask id="mask0_1_7737" style="mask-type:luminance" maskUnits="userSpaceOnUse" x="0" y="0" width="30" height="30">
<g id="clip0">
<path id="Vector" d="M30 0H0V30H30V0Z" fill="white"/>
</g>
</mask>
<g mask="url(#mask0_1_7737)">
<g id="Group">
<path id="Vector_2" d="M30 14.6112C30 12.6239 27.5112 10.7404 23.6955 9.57246C24.576 5.68335 24.1846 2.58917 22.4603 1.59855C22.0628 1.36619 21.598 1.25611 21.0905 1.25611V2.61975C21.3717 2.61975 21.598 2.67479 21.7876 2.77874C22.6192 3.25571 22.98 5.07185 22.6987 7.40776C22.6315 7.98257 22.5214 8.58795 22.3869 9.20556C21.1884 8.91205 19.8797 8.68579 18.5039 8.53904C17.6784 7.40776 16.8223 6.38045 15.96 5.48155C17.9535 3.62872 19.8248 2.61364 21.0966 2.61364V1.25C19.415 1.25 17.2136 2.44854 14.9878 4.52762C12.7619 2.46076 10.5605 1.27446 8.87893 1.27446V2.6381C10.1447 2.6381 12.022 3.64706 14.0155 5.48766C13.1594 6.38656 12.3033 7.40776 11.49 8.53904C10.108 8.68579 8.79943 8.91205 7.6009 9.21167C7.46025 8.60019 7.3563 8.00704 7.28291 7.43834C6.99551 5.10242 7.35019 3.28629 8.1757 2.8032C8.35915 2.69312 8.59764 2.64421 8.87893 2.64421V1.28057C8.36526 1.28057 7.90053 1.39065 7.49694 1.62301C5.77864 2.61364 5.3934 5.70169 6.28006 9.57857C2.47656 10.7526 0 12.63 0 14.6112C0 16.5985 2.48879 18.482 6.30453 19.6499C5.42397 23.539 5.81532 26.6332 7.53975 27.6239C7.93722 27.8562 8.40196 27.9662 8.91561 27.9662C10.5972 27.9662 12.7986 26.7677 15.0245 24.6886C17.2502 26.7555 19.4518 27.9417 21.1333 27.9417C21.647 27.9417 22.1117 27.8317 22.5152 27.5994C24.2336 26.6087 24.6189 23.5207 23.7321 19.6437C27.5235 18.4759 30 16.5925 30 14.6112ZM22.0384 10.5325C21.8121 11.3213 21.5308 12.1346 21.2127 12.9479C20.9621 12.4587 20.6991 11.9695 20.4117 11.4803C20.1305 10.9911 19.8309 10.5142 19.5312 10.0494C20.3995 10.1778 21.2372 10.3368 22.0384 10.5325ZM19.2376 17.045C18.7607 17.8705 18.2715 18.6531 17.764 19.3809C16.8529 19.4604 15.9295 19.5031 15 19.5031C14.0766 19.5031 13.1532 19.4604 12.2483 19.387C11.7407 18.6592 11.2454 17.8827 10.7685 17.0632C10.3037 16.2622 9.88177 15.449 9.49654 14.6295C9.87566 13.8101 10.3037 12.9907 10.7623 12.1897C11.2393 11.3641 11.7285 10.5814 12.236 9.85375C13.1471 9.77426 14.0705 9.73145 15 9.73145C15.9234 9.73145 16.8468 9.77426 17.7517 9.84764C18.2593 10.5753 18.7546 11.3519 19.2315 12.1713C19.6962 12.9724 20.1182 13.7856 20.5035 14.6051C20.1182 15.4245 19.6962 16.2439 19.2376 17.045ZM21.2127 16.25C21.543 17.0694 21.8242 17.8887 22.0566 18.6837C21.2556 18.8794 20.4117 19.0445 19.5373 19.173C19.8369 18.7021 20.1366 18.219 20.4179 17.7237C20.6991 17.2345 20.9621 16.7392 21.2127 16.25ZM15.0122 22.7746C14.4435 22.1876 13.8749 21.5334 13.3123 20.8179C13.8626 20.8424 14.4253 20.8606 14.9939 20.8606C15.5688 20.8606 16.1374 20.8485 16.6939 20.8179C16.1435 21.5334 15.5747 22.1876 15.0122 22.7746ZM10.4627 19.173C9.59437 19.0445 8.75663 18.8855 7.95556 18.6899C8.18181 17.901 8.4631 17.0877 8.78109 16.2745C9.0318 16.7636 9.29474 17.2529 9.58215 17.742C9.86955 18.2312 10.1631 18.7082 10.4627 19.173ZM14.9816 6.44771C15.5504 7.03475 16.119 7.68905 16.6816 8.4045C16.1313 8.38005 15.5688 8.3617 15 8.3617C14.4253 8.3617 13.8565 8.37392 13.3 8.4045C13.8504 7.68905 14.4191 7.03475 14.9816 6.44771ZM10.4566 10.0494C10.1569 10.5203 9.85731 11.0034 9.57603 11.4987C9.29474 11.9879 9.0318 12.4771 8.78109 12.9662C8.45088 12.1469 8.16959 11.3275 7.93723 10.5325C8.73828 10.3429 9.58215 10.1778 10.4566 10.0494ZM4.92255 17.7054C2.75785 16.782 1.35752 15.5712 1.35752 14.6112C1.35752 13.6511 2.75785 12.4343 4.92255 11.517C5.44844 11.2908 6.02324 11.089 6.61639 10.8994C6.96494 12.0979 7.42356 13.3454 7.99225 14.6234C7.42967 15.8954 6.97717 17.1366 6.63474 18.3291C6.02935 18.1395 5.45455 17.9316 4.92255 17.7054ZM8.21239 26.4436C7.38076 25.9666 7.01998 24.1505 7.30126 21.8146C7.36853 21.2397 7.4786 20.6344 7.61312 20.0169C8.81166 20.3104 10.1203 20.5366 11.4961 20.6834C12.3217 21.8146 13.1778 22.8419 14.04 23.7409C12.0465 25.5936 10.1753 26.6087 8.90339 26.6087C8.62821 26.6026 8.39584 26.5476 8.21239 26.4436ZM22.7171 21.784C23.0045 24.12 22.6499 25.9361 21.8242 26.4191C21.6409 26.5292 21.4024 26.5781 21.1211 26.5781C19.8552 26.5781 17.978 25.5692 15.9845 23.7286C16.8406 22.8297 17.6967 21.8085 18.51 20.6772C19.892 20.5305 21.2006 20.3042 22.3991 20.0046C22.5397 20.6222 22.6499 21.2154 22.7171 21.784ZM25.0714 17.7054C24.5455 17.9316 23.9706 18.1334 23.3775 18.323C23.029 17.1245 22.5704 15.877 22.0016 14.599C22.5642 13.327 23.0168 12.0857 23.3591 10.8933C23.9645 11.0829 24.5394 11.2908 25.0775 11.517C27.2421 12.4404 28.6425 13.6511 28.6425 14.6112C28.6364 15.5712 27.236 16.7881 25.0714 17.7054Z" fill="white"/>
<path id="Vector_3" d="M14.9937 17.4058C16.5371 17.4058 17.7882 16.1546 17.7882 14.6113C17.7882 13.0678 16.5371 11.8167 14.9937 11.8167C13.4504 11.8167 12.1992 13.0678 12.1992 14.6113C12.1992 16.1546 13.4504 17.4058 14.9937 17.4058Z" fill="white"/>
</g>
</g>
</g>
</g>
<defs>
<clipPath id="clip0_1_7737">
<rect width="30" height="30" fill="white"/>
</clipPath>
</defs>
</svg>
