<svg width="30" height="30" viewBox="0 0 30 30" fill="none" xmlns="http://www.w3.org/2000/svg">
<g id="browse-svgrepo-com 1">
<path id="Vector" d="M27 9V24H3V9H27ZM25.5 7.5C24.6716 7.5 24 6.82843 24 6C24 5.17157 24.6716 4.5 25.5 4.5C26.3284 4.5 27 5.17157 27 6C27 6.82843 26.3284 7.5 25.5 7.5ZM21 7.5C20.1716 7.5 19.5 6.82843 19.5 6C19.5 5.17157 20.1716 4.5 21 4.5C21.8284 4.5 22.5 5.17157 22.5 6C22.5 6.82843 21.8284 7.5 21 7.5ZM27 3H3C1.34315 3 0 4.34315 0 6V24C0 25.6569 1.34315 27 3 27H27C28.6569 27 30 25.6569 30 24V6C30 4.34315 28.6569 3 27 3Z" fill="white"/>
</g>
</svg>
